<?xml version="1.0" encoding="UTF-8" standalone="no"?><svg xmlns="http://www.w3.org/2000/svg" xmlns:xlink="http://www.w3.org/1999/xlink" contentScriptType="application/ecmascript" contentStyleType="text/css" height="1138px" preserveAspectRatio="none" style="width:1631px;height:1138px;background:#FFFFFF;" version="1.1" viewBox="0 0 1631 1138" width="1631px" zoomAndPan="magnify"><defs><filter height="300%" id="fa2zyfhzk734t" width="300%" x="-1" y="-1"><feGaussianBlur result="blurOut" stdDeviation="2.0"/><feColorMatrix in="blurOut" result="blurOut2" type="matrix" values="0 0 0 0 0 0 0 0 0 0 0 0 0 0 0 0 0 0 .4 0"/><feOffset dx="4.0" dy="4.0" in="blurOut2" result="blurOut3"/><feBlend in="SourceGraphic" in2="blurOut3" mode="normal"/></filter></defs><g><!--MD5=[b3441fe7325db8d0512a2a0f442f7912]
cluster lib2D-Doc--><polygon fill="#FFFFFF" filter="url(#fa2zyfhzk734t)" points="16,6,99,6,106,28.2969,1614,28.2969,1614,1131,16,1131,16,6" style="stroke:#000000;stroke-width:1.5;"/><line style="stroke:#000000;stroke-width:1.5;" x1="16" x2="106" y1="28.2969" y2="28.2969"/><text fill="#000000" font-family="sans-serif" font-size="14" font-weight="bold" lengthAdjust="spacing" textLength="77" x="20" y="20.9951">lib2D-Doc</text><!--MD5=[a19a1bd4aab85387a00189bb676cf4e4]
cluster build--><polygon fill="#FFFFFF" filter="url(#fa2zyfhzk734t)" points="1440,245,1486,245,1493,267.2969,1581,267.2969,1581,487,1440,487,1440,245" style="stroke:#000000;stroke-width:1.5;"/><line style="stroke:#000000;stroke-width:1.5;" x1="1440" x2="1493" y1="267.2969" y2="267.2969"/><text fill="#000000" font-family="sans-serif" font-size="14" font-weight="bold" lengthAdjust="spacing" textLength="40" x="1444" y="259.9951">build</text><!--MD5=[0b69bba2a0460188fb22d0917cf3c155]
cluster specifications--><polygon fill="#FFFFFF" filter="url(#fa2zyfhzk734t)" points="687,57,808,57,815,79.2969,1400,79.2969,1400,360,687,360,687,57" style="stroke:#000000;stroke-width:1.5;"/><line style="stroke:#000000;stroke-width:1.5;" x1="687" x2="815" y1="79.2969" y2="79.2969"/><text fill="#000000" font-family="sans-serif" font-size="14" font-weight="bold" lengthAdjust="spacing" textLength="115" x="691" y="71.9951">specifications</text><!--MD5=[1f91df2fa33510b0a0f37d3a881ec700]
cluster serialize--><polygon fill="#FFFFFF" filter="url(#fa2zyfhzk734t)" points="509,78,583,78,590,100.2969,655,100.2969,655,352,509,352,509,78" style="stroke:#000000;stroke-width:1.5;"/><line style="stroke:#000000;stroke-width:1.5;" x1="509" x2="590" y1="100.2969" y2="100.2969"/><text fill="#000000" font-family="sans-serif" font-size="14" font-weight="bold" lengthAdjust="spacing" textLength="68" x="513" y="92.9951">serialize</text><!--MD5=[388329cbf070bedae2c2eed9386e38eb]
cluster libDmtx--><polygon fill="#FFFFFF" filter="url(#fa2zyfhzk734t)" points="509,528,578,528,585,550.2969,635,550.2969,635,742,509,742,509,528" style="stroke:#000000;stroke-width:1.5;"/><line style="stroke:#000000;stroke-width:1.5;" x1="509" x2="585" y1="550.2969" y2="550.2969"/><text fill="#000000" font-family="sans-serif" font-size="14" font-weight="bold" lengthAdjust="spacing" textLength="63" x="513" y="542.9951">libDmtx</text><!--MD5=[7778d6cebf4d1039103c23fe2eb326e8]
cluster document--><polygon fill="#FFFFFF" filter="url(#fa2zyfhzk734t)" points="40,253,127,253,134,275.2969,485,275.2969,485,1107,40,1107,40,253" style="stroke:#000000;stroke-width:1.5;"/><line style="stroke:#000000;stroke-width:1.5;" x1="40" x2="134" y1="275.2969" y2="275.2969"/><text fill="#000000" font-family="sans-serif" font-size="14" font-weight="bold" lengthAdjust="spacing" textLength="81" x="44" y="267.9951">document</text><!--MD5=[c1658959ae7efea6f1f166ee65b2b4aa]
cluster security--><polygon fill="#FFFFFF" filter="url(#fa2zyfhzk734t)" points="509,775,581,775,588,797.2969,641,797.2969,641,887,509,887,509,775" style="stroke:#000000;stroke-width:1.5;"/><line style="stroke:#000000;stroke-width:1.5;" x1="509" x2="588" y1="797.2969" y2="797.2969"/><text fill="#000000" font-family="sans-serif" font-size="14" font-weight="bold" lengthAdjust="spacing" textLength="66" x="513" y="789.9951">security</text><!--MD5=[8d729038c48ea67d1bfca0b0b8d717df]
class Loader--><rect codeLine="8" fill="#FEFECE" filter="url(#fa2zyfhzk734t)" height="48" id="Loader" style="stroke:#A80036;stroke-width:1.5;" width="74" x="1483" y="415"/><ellipse cx="1498" cy="431" fill="#ADD1B2" rx="11" ry="11" style="stroke:#A80036;stroke-width:1.0;"/><path d="M1500.3438,426.6719 C1499.4063,426.2344 1498.8125,426.0938 1497.9375,426.0938 C1495.3125,426.0938 1493.3125,428.1719 1493.3125,430.8906 L1493.3125,432.0156 C1493.3125,434.5938 1495.4219,436.4844 1498.3125,436.4844 C1499.5313,436.4844 1500.6875,436.1875 1501.4375,435.6406 C1502.0156,435.2344 1502.3438,434.7813 1502.3438,434.3906 C1502.3438,433.9375 1501.9531,433.5469 1501.4844,433.5469 C1501.2656,433.5469 1501.0625,433.625 1500.875,433.8125 C1500.4219,434.2969 1500.4219,434.2969 1500.2344,434.3906 C1499.8125,434.6563 1499.125,434.7813 1498.3594,434.7813 C1496.3125,434.7813 1495.0156,433.6875 1495.0156,431.9844 L1495.0156,430.8906 C1495.0156,429.1094 1496.2656,427.7969 1498,427.7969 C1498.5781,427.7969 1499.1875,427.9531 1499.6563,428.2031 C1500.1406,428.4844 1500.3125,428.7031 1500.4063,429.1094 C1500.4688,429.5156 1500.5,429.6406 1500.6406,429.7656 C1500.7813,429.9063 1501.0156,430.0156 1501.2344,430.0156 C1501.5,430.0156 1501.7656,429.875 1501.9375,429.6563 C1502.0469,429.5 1502.0781,429.3125 1502.0781,428.8906 L1502.0781,427.4688 C1502.0781,427.0313 1502.0625,426.9063 1501.9688,426.75 C1501.8125,426.4844 1501.5313,426.3438 1501.2344,426.3438 C1500.9375,426.3438 1500.7344,426.4375 1500.5156,426.75 L1500.3438,426.6719 Z " fill="#000000"/><text fill="#000000" font-family="sans-serif" font-size="12" lengthAdjust="spacing" textLength="42" x="1512" y="435.1543">Loader</text><line style="stroke:#A80036;stroke-width:1.5;" x1="1484" x2="1556" y1="447" y2="447"/><line style="stroke:#A80036;stroke-width:1.5;" x1="1484" x2="1556" y1="455" y2="455"/><!--MD5=[a8dc8aefce085dae70bec15e302cfec9]
class Builder--><rect codeLine="10" fill="#FEFECE" filter="url(#fa2zyfhzk734t)" height="48" id="Builder" style="stroke:#A80036;stroke-width:1.5;" width="74" x="1483" y="288"/><ellipse cx="1498" cy="304" fill="#ADD1B2" rx="11" ry="11" style="stroke:#A80036;stroke-width:1.0;"/><path d="M1500.3438,299.6719 C1499.4063,299.2344 1498.8125,299.0938 1497.9375,299.0938 C1495.3125,299.0938 1493.3125,301.1719 1493.3125,303.8906 L1493.3125,305.0156 C1493.3125,307.5938 1495.4219,309.4844 1498.3125,309.4844 C1499.5313,309.4844 1500.6875,309.1875 1501.4375,308.6406 C1502.0156,308.2344 1502.3438,307.7813 1502.3438,307.3906 C1502.3438,306.9375 1501.9531,306.5469 1501.4844,306.5469 C1501.2656,306.5469 1501.0625,306.625 1500.875,306.8125 C1500.4219,307.2969 1500.4219,307.2969 1500.2344,307.3906 C1499.8125,307.6563 1499.125,307.7813 1498.3594,307.7813 C1496.3125,307.7813 1495.0156,306.6875 1495.0156,304.9844 L1495.0156,303.8906 C1495.0156,302.1094 1496.2656,300.7969 1498,300.7969 C1498.5781,300.7969 1499.1875,300.9531 1499.6563,301.2031 C1500.1406,301.4844 1500.3125,301.7031 1500.4063,302.1094 C1500.4688,302.5156 1500.5,302.6406 1500.6406,302.7656 C1500.7813,302.9063 1501.0156,303.0156 1501.2344,303.0156 C1501.5,303.0156 1501.7656,302.875 1501.9375,302.6563 C1502.0469,302.5 1502.0781,302.3125 1502.0781,301.8906 L1502.0781,300.4688 C1502.0781,300.0313 1502.0625,299.9063 1501.9688,299.75 C1501.8125,299.4844 1501.5313,299.3438 1501.2344,299.3438 C1500.9375,299.3438 1500.7344,299.4375 1500.5156,299.75 L1500.3438,299.6719 Z " fill="#000000"/><text fill="#000000" font-family="sans-serif" font-size="12" lengthAdjust="spacing" textLength="42" x="1512" y="308.1543">Builder</text><line style="stroke:#A80036;stroke-width:1.5;" x1="1484" x2="1556" y1="320" y2="320"/><line style="stroke:#A80036;stroke-width:1.5;" x1="1484" x2="1556" y1="328" y2="328"/><!--MD5=[f20e9304657ff499b9d11743511880fc]
class SpecifcationStore--><rect codeLine="16" fill="#FEFECE" filter="url(#fa2zyfhzk734t)" height="73.6094" id="SpecifcationStore" style="stroke:#A80036;stroke-width:1.5;" width="139" x="1217.5" y="100"/><ellipse cx="1232.5" cy="116" fill="#ADD1B2" rx="11" ry="11" style="stroke:#A80036;stroke-width:1.0;"/><path d="M1234.8438,111.6719 C1233.9063,111.2344 1233.3125,111.0938 1232.4375,111.0938 C1229.8125,111.0938 1227.8125,113.1719 1227.8125,115.8906 L1227.8125,117.0156 C1227.8125,119.5938 1229.9219,121.4844 1232.8125,121.4844 C1234.0313,121.4844 1235.1875,121.1875 1235.9375,120.6406 C1236.5156,120.2344 1236.8438,119.7813 1236.8438,119.3906 C1236.8438,118.9375 1236.4531,118.5469 1235.9844,118.5469 C1235.7656,118.5469 1235.5625,118.625 1235.375,118.8125 C1234.9219,119.2969 1234.9219,119.2969 1234.7344,119.3906 C1234.3125,119.6563 1233.625,119.7813 1232.8594,119.7813 C1230.8125,119.7813 1229.5156,118.6875 1229.5156,116.9844 L1229.5156,115.8906 C1229.5156,114.1094 1230.7656,112.7969 1232.5,112.7969 C1233.0781,112.7969 1233.6875,112.9531 1234.1563,113.2031 C1234.6406,113.4844 1234.8125,113.7031 1234.9063,114.1094 C1234.9688,114.5156 1235,114.6406 1235.1406,114.7656 C1235.2813,114.9063 1235.5156,115.0156 1235.7344,115.0156 C1236,115.0156 1236.2656,114.875 1236.4375,114.6563 C1236.5469,114.5 1236.5781,114.3125 1236.5781,113.8906 L1236.5781,112.4688 C1236.5781,112.0313 1236.5625,111.9063 1236.4688,111.75 C1236.3125,111.4844 1236.0313,111.3438 1235.7344,111.3438 C1235.4375,111.3438 1235.2344,111.4375 1235.0156,111.75 L1234.8438,111.6719 Z " fill="#000000"/><text fill="#000000" font-family="sans-serif" font-size="12" lengthAdjust="spacing" textLength="107" x="1246.5" y="120.1543">SpecifcationStore</text><line style="stroke:#A80036;stroke-width:1.5;" x1="1218.5" x2="1355.5" y1="132" y2="132"/><line style="stroke:#A80036;stroke-width:1.5;" x1="1218.5" x2="1355.5" y1="140" y2="140"/><text fill="#000000" font-family="sans-serif" font-size="11" lengthAdjust="spacing" textLength="78" x="1223.5" y="154.2104">fill (Hashmap)</text><text fill="#000000" font-family="sans-serif" font-size="11" lengthAdjust="spacing" textLength="37" x="1223.5" y="167.0151">get(id)</text><!--MD5=[a029bd7004b64da5ad13d431b68f1ea3]
class ErrorSpecifiactions--><rect codeLine="20" fill="#FEFECE" filter="url(#fa2zyfhzk734t)" height="48" id="ErrorSpecifiactions" style="stroke:#A80036;stroke-width:1.5;" width="146" x="1036" y="113"/><ellipse cx="1051" cy="129" fill="#ADD1B2" rx="11" ry="11" style="stroke:#A80036;stroke-width:1.0;"/><path d="M1053.3438,124.6719 C1052.4063,124.2344 1051.8125,124.0938 1050.9375,124.0938 C1048.3125,124.0938 1046.3125,126.1719 1046.3125,128.8906 L1046.3125,130.0156 C1046.3125,132.5938 1048.4219,134.4844 1051.3125,134.4844 C1052.5313,134.4844 1053.6875,134.1875 1054.4375,133.6406 C1055.0156,133.2344 1055.3438,132.7813 1055.3438,132.3906 C1055.3438,131.9375 1054.9531,131.5469 1054.4844,131.5469 C1054.2656,131.5469 1054.0625,131.625 1053.875,131.8125 C1053.4219,132.2969 1053.4219,132.2969 1053.2344,132.3906 C1052.8125,132.6563 1052.125,132.7813 1051.3594,132.7813 C1049.3125,132.7813 1048.0156,131.6875 1048.0156,129.9844 L1048.0156,128.8906 C1048.0156,127.1094 1049.2656,125.7969 1051,125.7969 C1051.5781,125.7969 1052.1875,125.9531 1052.6563,126.2031 C1053.1406,126.4844 1053.3125,126.7031 1053.4063,127.1094 C1053.4688,127.5156 1053.5,127.6406 1053.6406,127.7656 C1053.7813,127.9063 1054.0156,128.0156 1054.2344,128.0156 C1054.5,128.0156 1054.7656,127.875 1054.9375,127.6563 C1055.0469,127.5 1055.0781,127.3125 1055.0781,126.8906 L1055.0781,125.4688 C1055.0781,125.0313 1055.0625,124.9063 1054.9688,124.75 C1054.8125,124.4844 1054.5313,124.3438 1054.2344,124.3438 C1053.9375,124.3438 1053.7344,124.4375 1053.5156,124.75 L1053.3438,124.6719 Z " fill="#000000"/><text fill="#000000" font-family="sans-serif" font-size="12" lengthAdjust="spacing" textLength="114" x="1065" y="133.1543">ErrorSpecifiactions</text><line style="stroke:#A80036;stroke-width:1.5;" x1="1037" x2="1181" y1="145" y2="145"/><line style="stroke:#A80036;stroke-width:1.5;" x1="1037" x2="1181" y1="153" y2="153"/><!--MD5=[671ca7f34b401bd29e87d01d3a8e3abb]
class DocumentSpecificationStore--><rect codeLine="22" fill="#FEFECE" filter="url(#fa2zyfhzk734t)" height="48" id="DocumentSpecificationStore" style="stroke:#A80036;stroke-width:1.5;" width="203" x="947.5" y="288"/><ellipse cx="962.5" cy="304" fill="#ADD1B2" rx="11" ry="11" style="stroke:#A80036;stroke-width:1.0;"/><path d="M964.8438,299.6719 C963.9063,299.2344 963.3125,299.0938 962.4375,299.0938 C959.8125,299.0938 957.8125,301.1719 957.8125,303.8906 L957.8125,305.0156 C957.8125,307.5938 959.9219,309.4844 962.8125,309.4844 C964.0313,309.4844 965.1875,309.1875 965.9375,308.6406 C966.5156,308.2344 966.8438,307.7813 966.8438,307.3906 C966.8438,306.9375 966.4531,306.5469 965.9844,306.5469 C965.7656,306.5469 965.5625,306.625 965.375,306.8125 C964.9219,307.2969 964.9219,307.2969 964.7344,307.3906 C964.3125,307.6563 963.625,307.7813 962.8594,307.7813 C960.8125,307.7813 959.5156,306.6875 959.5156,304.9844 L959.5156,303.8906 C959.5156,302.1094 960.7656,300.7969 962.5,300.7969 C963.0781,300.7969 963.6875,300.9531 964.1563,301.2031 C964.6406,301.4844 964.8125,301.7031 964.9063,302.1094 C964.9688,302.5156 965,302.6406 965.1406,302.7656 C965.2813,302.9063 965.5156,303.0156 965.7344,303.0156 C966,303.0156 966.2656,302.875 966.4375,302.6563 C966.5469,302.5 966.5781,302.3125 966.5781,301.8906 L966.5781,300.4688 C966.5781,300.0313 966.5625,299.9063 966.4688,299.75 C966.3125,299.4844 966.0313,299.3438 965.7344,299.3438 C965.4375,299.3438 965.2344,299.4375 965.0156,299.75 L964.8438,299.6719 Z " fill="#000000"/><text fill="#000000" font-family="sans-serif" font-size="12" lengthAdjust="spacing" textLength="171" x="976.5" y="308.1543">DocumentSpecificationStore</text><line style="stroke:#A80036;stroke-width:1.5;" x1="948.5" x2="1149.5" y1="320" y2="320"/><line style="stroke:#A80036;stroke-width:1.5;" x1="948.5" x2="1149.5" y1="328" y2="328"/><!--MD5=[56e62e7df089eb49e39c67f46bb10de2]
class FieldSpecificationStore--><rect codeLine="24" fill="#FEFECE" filter="url(#fa2zyfhzk734t)" height="48" id="FieldSpecificationStore" style="stroke:#A80036;stroke-width:1.5;" width="171" x="1185.5" y="288"/><ellipse cx="1200.5" cy="304" fill="#ADD1B2" rx="11" ry="11" style="stroke:#A80036;stroke-width:1.0;"/><path d="M1202.8438,299.6719 C1201.9063,299.2344 1201.3125,299.0938 1200.4375,299.0938 C1197.8125,299.0938 1195.8125,301.1719 1195.8125,303.8906 L1195.8125,305.0156 C1195.8125,307.5938 1197.9219,309.4844 1200.8125,309.4844 C1202.0313,309.4844 1203.1875,309.1875 1203.9375,308.6406 C1204.5156,308.2344 1204.8438,307.7813 1204.8438,307.3906 C1204.8438,306.9375 1204.4531,306.5469 1203.9844,306.5469 C1203.7656,306.5469 1203.5625,306.625 1203.375,306.8125 C1202.9219,307.2969 1202.9219,307.2969 1202.7344,307.3906 C1202.3125,307.6563 1201.625,307.7813 1200.8594,307.7813 C1198.8125,307.7813 1197.5156,306.6875 1197.5156,304.9844 L1197.5156,303.8906 C1197.5156,302.1094 1198.7656,300.7969 1200.5,300.7969 C1201.0781,300.7969 1201.6875,300.9531 1202.1563,301.2031 C1202.6406,301.4844 1202.8125,301.7031 1202.9063,302.1094 C1202.9688,302.5156 1203,302.6406 1203.1406,302.7656 C1203.2813,302.9063 1203.5156,303.0156 1203.7344,303.0156 C1204,303.0156 1204.2656,302.875 1204.4375,302.6563 C1204.5469,302.5 1204.5781,302.3125 1204.5781,301.8906 L1204.5781,300.4688 C1204.5781,300.0313 1204.5625,299.9063 1204.4688,299.75 C1204.3125,299.4844 1204.0313,299.3438 1203.7344,299.3438 C1203.4375,299.3438 1203.2344,299.4375 1203.0156,299.75 L1202.8438,299.6719 Z " fill="#000000"/><text fill="#000000" font-family="sans-serif" font-size="12" lengthAdjust="spacing" textLength="139" x="1214.5" y="308.1543">FieldSpecificationStore</text><line style="stroke:#A80036;stroke-width:1.5;" x1="1186.5" x2="1355.5" y1="320" y2="320"/><line style="stroke:#A80036;stroke-width:1.5;" x1="1186.5" x2="1355.5" y1="328" y2="328"/><path d="M711,109.5 L711,164.8984 L1001,164.8984 L1001,119.5 L991,109.5 L711,109.5 " fill="#FBFB77" filter="url(#fa2zyfhzk734t)" style="stroke:#A80036;stroke-width:1.0;"/><path d="M991,109.5 L991,119.5 L1001,119.5 L991,109.5 " fill="#FBFB77" style="stroke:#A80036;stroke-width:1.0;"/><text fill="#000000" font-family="sans-serif" font-size="13" lengthAdjust="spacing" textLength="182" x="717" y="126.5669">DocumentSpecificationStore</text><text fill="#000000" font-family="sans-serif" font-size="13" lengthAdjust="spacing" textLength="144" x="717" y="141.6997">FieldSpecificationStore</text><text fill="#000000" font-family="sans-serif" font-size="13" lengthAdjust="spacing" textLength="269" x="717" y="156.8325">are available in every package (Singleton)</text><!--MD5=[ced3ef91867ebcc8369c16ffb80a2e55]
class Serialize--><rect codeLine="35" fill="#FEFECE" filter="url(#fa2zyfhzk734t)" height="48" id="Serialize" style="stroke:#A80036;stroke-width:1.5;" width="84" x="529" y="288"/><ellipse cx="544" cy="304" fill="#ADD1B2" rx="11" ry="11" style="stroke:#A80036;stroke-width:1.0;"/><path d="M546.3438,299.6719 C545.4063,299.2344 544.8125,299.0938 543.9375,299.0938 C541.3125,299.0938 539.3125,301.1719 539.3125,303.8906 L539.3125,305.0156 C539.3125,307.5938 541.4219,309.4844 544.3125,309.4844 C545.5313,309.4844 546.6875,309.1875 547.4375,308.6406 C548.0156,308.2344 548.3438,307.7813 548.3438,307.3906 C548.3438,306.9375 547.9531,306.5469 547.4844,306.5469 C547.2656,306.5469 547.0625,306.625 546.875,306.8125 C546.4219,307.2969 546.4219,307.2969 546.2344,307.3906 C545.8125,307.6563 545.125,307.7813 544.3594,307.7813 C542.3125,307.7813 541.0156,306.6875 541.0156,304.9844 L541.0156,303.8906 C541.0156,302.1094 542.2656,300.7969 544,300.7969 C544.5781,300.7969 545.1875,300.9531 545.6563,301.2031 C546.1406,301.4844 546.3125,301.7031 546.4063,302.1094 C546.4688,302.5156 546.5,302.6406 546.6406,302.7656 C546.7813,302.9063 547.0156,303.0156 547.2344,303.0156 C547.5,303.0156 547.7656,302.875 547.9375,302.6563 C548.0469,302.5 548.0781,302.3125 548.0781,301.8906 L548.0781,300.4688 C548.0781,300.0313 548.0625,299.9063 547.9688,299.75 C547.8125,299.4844 547.5313,299.3438 547.2344,299.3438 C546.9375,299.3438 546.7344,299.4375 546.5156,299.75 L546.3438,299.6719 Z " fill="#000000"/><text fill="#000000" font-family="sans-serif" font-size="12" lengthAdjust="spacing" textLength="52" x="558" y="308.1543">Serialize</text><line style="stroke:#A80036;stroke-width:1.5;" x1="530" x2="612" y1="320" y2="320"/><line style="stroke:#A80036;stroke-width:1.5;" x1="530" x2="612" y1="328" y2="328"/><!--MD5=[348fb4d9fa65c5888d158631c9981233]
class SerializeJSON--><rect codeLine="37" fill="#FEFECE" filter="url(#fa2zyfhzk734t)" height="48" id="SerializeJSON" style="stroke:#A80036;stroke-width:1.5;" width="114" x="525" y="113"/><ellipse cx="540" cy="129" fill="#ADD1B2" rx="11" ry="11" style="stroke:#A80036;stroke-width:1.0;"/><path d="M542.3438,124.6719 C541.4063,124.2344 540.8125,124.0938 539.9375,124.0938 C537.3125,124.0938 535.3125,126.1719 535.3125,128.8906 L535.3125,130.0156 C535.3125,132.5938 537.4219,134.4844 540.3125,134.4844 C541.5313,134.4844 542.6875,134.1875 543.4375,133.6406 C544.0156,133.2344 544.3438,132.7813 544.3438,132.3906 C544.3438,131.9375 543.9531,131.5469 543.4844,131.5469 C543.2656,131.5469 543.0625,131.625 542.875,131.8125 C542.4219,132.2969 542.4219,132.2969 542.2344,132.3906 C541.8125,132.6563 541.125,132.7813 540.3594,132.7813 C538.3125,132.7813 537.0156,131.6875 537.0156,129.9844 L537.0156,128.8906 C537.0156,127.1094 538.2656,125.7969 540,125.7969 C540.5781,125.7969 541.1875,125.9531 541.6563,126.2031 C542.1406,126.4844 542.3125,126.7031 542.4063,127.1094 C542.4688,127.5156 542.5,127.6406 542.6406,127.7656 C542.7813,127.9063 543.0156,128.0156 543.2344,128.0156 C543.5,128.0156 543.7656,127.875 543.9375,127.6563 C544.0469,127.5 544.0781,127.3125 544.0781,126.8906 L544.0781,125.4688 C544.0781,125.0313 544.0625,124.9063 543.9688,124.75 C543.8125,124.4844 543.5313,124.3438 543.2344,124.3438 C542.9375,124.3438 542.7344,124.4375 542.5156,124.75 L542.3438,124.6719 Z " fill="#000000"/><text fill="#000000" font-family="sans-serif" font-size="12" lengthAdjust="spacing" textLength="82" x="554" y="133.1543">SerializeJSON</text><line style="stroke:#A80036;stroke-width:1.5;" x1="526" x2="638" y1="145" y2="145"/><line style="stroke:#A80036;stroke-width:1.5;" x1="526" x2="638" y1="153" y2="153"/><!--MD5=[0dfddb9c42a3c03eea5578e676543499]
class DmtxRead--><rect codeLine="43" fill="#FEFECE" filter="url(#fa2zyfhzk734t)" height="48" id="DmtxRead" style="stroke:#A80036;stroke-width:1.5;" width="93" x="525.5" y="563"/><ellipse cx="540.5" cy="579" fill="#ADD1B2" rx="11" ry="11" style="stroke:#A80036;stroke-width:1.0;"/><path d="M542.8438,574.6719 C541.9063,574.2344 541.3125,574.0938 540.4375,574.0938 C537.8125,574.0938 535.8125,576.1719 535.8125,578.8906 L535.8125,580.0156 C535.8125,582.5938 537.9219,584.4844 540.8125,584.4844 C542.0313,584.4844 543.1875,584.1875 543.9375,583.6406 C544.5156,583.2344 544.8438,582.7813 544.8438,582.3906 C544.8438,581.9375 544.4531,581.5469 543.9844,581.5469 C543.7656,581.5469 543.5625,581.625 543.375,581.8125 C542.9219,582.2969 542.9219,582.2969 542.7344,582.3906 C542.3125,582.6563 541.625,582.7813 540.8594,582.7813 C538.8125,582.7813 537.5156,581.6875 537.5156,579.9844 L537.5156,578.8906 C537.5156,577.1094 538.7656,575.7969 540.5,575.7969 C541.0781,575.7969 541.6875,575.9531 542.1563,576.2031 C542.6406,576.4844 542.8125,576.7031 542.9063,577.1094 C542.9688,577.5156 543,577.6406 543.1406,577.7656 C543.2813,577.9063 543.5156,578.0156 543.7344,578.0156 C544,578.0156 544.2656,577.875 544.4375,577.6563 C544.5469,577.5 544.5781,577.3125 544.5781,576.8906 L544.5781,575.4688 C544.5781,575.0313 544.5625,574.9063 544.4688,574.75 C544.3125,574.4844 544.0313,574.3438 543.7344,574.3438 C543.4375,574.3438 543.2344,574.4375 543.0156,574.75 L542.8438,574.6719 Z " fill="#000000"/><text fill="#000000" font-family="sans-serif" font-size="12" lengthAdjust="spacing" textLength="61" x="554.5" y="583.1543">DmtxRead</text><line style="stroke:#A80036;stroke-width:1.5;" x1="526.5" x2="617.5" y1="595" y2="595"/><line style="stroke:#A80036;stroke-width:1.5;" x1="526.5" x2="617.5" y1="603" y2="603"/><!--MD5=[5e812e15366520cb6bf78f3f73bc3173]
class libdmtx--><rect codeLine="45" fill="#FEFECE" filter="url(#fa2zyfhzk734t)" height="53.9375" id="libdmtx" style="stroke:#A80036;stroke-width:1.5;" width="85" x="529.5" y="672"/><ellipse cx="544.5" cy="690.9688" fill="#FF7700" rx="11" ry="11" style="stroke:#A80036;stroke-width:1.0;"/><path d="M543.3594,687.75 L544.3281,687.75 C544.7188,687.75 544.9063,687.7188 545.0313,687.6406 C545.2969,687.4844 545.4375,687.2031 545.4375,686.9063 C545.4375,686.6406 545.3125,686.375 545.0938,686.2031 C544.9219,686.0938 544.7813,686.0625 544.3281,686.0625 L540.6875,686.0625 C540.2344,686.0625 540.125,686.0781 539.9688,686.1719 C539.7188,686.3281 539.5625,686.625 539.5625,686.9063 C539.5625,687.1875 539.7031,687.4375 539.9219,687.6094 C540.0781,687.7188 540.2656,687.75 540.6875,687.75 L541.6563,687.75 L541.6563,694.2656 L540.6875,694.2656 C540.2344,694.2656 540.125,694.2813 539.9688,694.3906 C539.7188,694.5469 539.5625,694.8281 539.5625,695.125 C539.5625,695.3906 539.7031,695.6406 539.9219,695.7969 C540.0469,695.9219 540.2969,695.9688 540.6875,695.9688 L548.7031,695.9688 L548.7031,692.7031 C548.7031,692.2813 548.6875,692.125 548.5938,691.9688 C548.4219,691.7188 548.1406,691.5625 547.8594,691.5625 C547.5781,691.5625 547.3281,691.6875 547.1563,691.9219 C547.0469,692.0938 547,692.25 547,692.7031 L547,694.2656 L543.3594,694.2656 L543.3594,687.75 Z " fill="#000000"/><text fill="#000000" font-family="sans-serif" font-size="12" font-style="italic" lengthAdjust="spacing" textLength="57" x="556.5" y="688.1387">«extern »</text><text fill="#000000" font-family="sans-serif" font-size="12" lengthAdjust="spacing" textLength="44" x="563" y="702.1074">libdmtx</text><line style="stroke:#A80036;stroke-width:1.5;" x1="530.5" x2="613.5" y1="709.9375" y2="709.9375"/><line style="stroke:#A80036;stroke-width:1.5;" x1="530.5" x2="613.5" y1="717.9375" y2="717.9375"/><!--MD5=[36e79aca61f5089cde3007562b2db653]
class lib_c.rs--><rect codeLine="52" fill="#FEFECE" filter="url(#fa2zyfhzk734t)" height="48" id="lib_c.rs" style="stroke:#A80036;stroke-width:1.5;" width="74" x="395" y="288"/><ellipse cx="410" cy="304" fill="#B4A7E5" rx="11" ry="11" style="stroke:#A80036;stroke-width:1.0;"/><path d="M410.9531,300.7813 L412.6719,300.7813 C413.0625,300.7813 413.25,300.75 413.375,300.6719 C413.6406,300.5156 413.7813,300.2344 413.7813,299.9375 C413.7813,299.6719 413.6719,299.4063 413.4375,299.2344 C413.2656,299.125 413.125,299.0938 412.6719,299.0938 L407.5313,299.0938 C407.0938,299.0938 406.9688,299.1094 406.8125,299.2031 C406.5625,299.3594 406.4063,299.6563 406.4063,299.9375 C406.4063,300.2188 406.5469,300.4688 406.7656,300.6406 C406.9219,300.75 407.1094,300.7813 407.5313,300.7813 L409.25,300.7813 L409.25,307.2969 L407.5313,307.2969 C407.0938,307.2969 406.9688,307.3125 406.8125,307.4219 C406.5625,307.5781 406.4063,307.8594 406.4063,308.1563 C406.4063,308.4063 406.5469,308.6719 406.7656,308.8281 C406.9219,308.9531 407.125,309 407.5313,309 L412.6719,309 C413.4219,309 413.7813,308.7188 413.7813,308.1563 C413.7813,307.875 413.6719,307.625 413.4375,307.4531 C413.2656,307.3281 413.125,307.2969 412.6719,307.2969 L410.9531,307.2969 L410.9531,300.7813 Z " fill="#000000"/><text fill="#000000" font-family="sans-serif" font-size="12" font-style="italic" lengthAdjust="spacing" textLength="42" x="424" y="308.1543">lib_c.rs</text><line style="stroke:#A80036;stroke-width:1.5;" x1="396" x2="468" y1="320" y2="320"/><line style="stroke:#A80036;stroke-width:1.5;" x1="396" x2="468" y1="328" y2="328"/><!--MD5=[802c55044b09124ebae8172163429f1a]
class lib.rs--><rect codeLine="54" fill="#FEFECE" filter="url(#fa2zyfhzk734t)" height="48" id="lib.rs" style="stroke:#A80036;stroke-width:1.5;" width="61" x="405.5" y="415"/><ellipse cx="420.5" cy="431" fill="#B4A7E5" rx="11" ry="11" style="stroke:#A80036;stroke-width:1.0;"/><path d="M421.4531,427.7813 L423.1719,427.7813 C423.5625,427.7813 423.75,427.75 423.875,427.6719 C424.1406,427.5156 424.2813,427.2344 424.2813,426.9375 C424.2813,426.6719 424.1719,426.4063 423.9375,426.2344 C423.7656,426.125 423.625,426.0938 423.1719,426.0938 L418.0313,426.0938 C417.5938,426.0938 417.4688,426.1094 417.3125,426.2031 C417.0625,426.3594 416.9063,426.6563 416.9063,426.9375 C416.9063,427.2188 417.0469,427.4688 417.2656,427.6406 C417.4219,427.75 417.6094,427.7813 418.0313,427.7813 L419.75,427.7813 L419.75,434.2969 L418.0313,434.2969 C417.5938,434.2969 417.4688,434.3125 417.3125,434.4219 C417.0625,434.5781 416.9063,434.8594 416.9063,435.1563 C416.9063,435.4063 417.0469,435.6719 417.2656,435.8281 C417.4219,435.9531 417.625,436 418.0313,436 L423.1719,436 C423.9219,436 424.2813,435.7188 424.2813,435.1563 C424.2813,434.875 424.1719,434.625 423.9375,434.4531 C423.7656,434.3281 423.625,434.2969 423.1719,434.2969 L421.4531,434.2969 L421.4531,427.7813 Z " fill="#000000"/><text fill="#000000" font-family="sans-serif" font-size="12" font-style="italic" lengthAdjust="spacing" textLength="29" x="434.5" y="435.1543">lib.rs</text><line style="stroke:#A80036;stroke-width:1.5;" x1="406.5" x2="465.5" y1="447" y2="447"/><line style="stroke:#A80036;stroke-width:1.5;" x1="406.5" x2="465.5" y1="455" y2="455"/><!--MD5=[59c77a504eba5b642215a383ec5594bf]
class Decoder--><rect codeLine="56" fill="#FEFECE" filter="url(#fa2zyfhzk734t)" height="48" id="Decoder" style="stroke:#A80036;stroke-width:1.5;" width="85" x="251.5" y="563"/><ellipse cx="266.5" cy="579" fill="#ADD1B2" rx="11" ry="11" style="stroke:#A80036;stroke-width:1.0;"/><path d="M268.8438,574.6719 C267.9063,574.2344 267.3125,574.0938 266.4375,574.0938 C263.8125,574.0938 261.8125,576.1719 261.8125,578.8906 L261.8125,580.0156 C261.8125,582.5938 263.9219,584.4844 266.8125,584.4844 C268.0313,584.4844 269.1875,584.1875 269.9375,583.6406 C270.5156,583.2344 270.8438,582.7813 270.8438,582.3906 C270.8438,581.9375 270.4531,581.5469 269.9844,581.5469 C269.7656,581.5469 269.5625,581.625 269.375,581.8125 C268.9219,582.2969 268.9219,582.2969 268.7344,582.3906 C268.3125,582.6563 267.625,582.7813 266.8594,582.7813 C264.8125,582.7813 263.5156,581.6875 263.5156,579.9844 L263.5156,578.8906 C263.5156,577.1094 264.7656,575.7969 266.5,575.7969 C267.0781,575.7969 267.6875,575.9531 268.1563,576.2031 C268.6406,576.4844 268.8125,576.7031 268.9063,577.1094 C268.9688,577.5156 269,577.6406 269.1406,577.7656 C269.2813,577.9063 269.5156,578.0156 269.7344,578.0156 C270,578.0156 270.2656,577.875 270.4375,577.6563 C270.5469,577.5 270.5781,577.3125 270.5781,576.8906 L270.5781,575.4688 C270.5781,575.0313 270.5625,574.9063 270.4688,574.75 C270.3125,574.4844 270.0313,574.3438 269.7344,574.3438 C269.4375,574.3438 269.2344,574.4375 269.0156,574.75 L268.8438,574.6719 Z " fill="#000000"/><text fill="#000000" font-family="sans-serif" font-size="12" lengthAdjust="spacing" textLength="53" x="280.5" y="583.1543">Decoder</text><line style="stroke:#A80036;stroke-width:1.5;" x1="252.5" x2="335.5" y1="595" y2="595"/><line style="stroke:#A80036;stroke-width:1.5;" x1="252.5" x2="335.5" y1="603" y2="603"/><!--MD5=[a4fa994876817df7bd785eaaaffc505e]
class Validity--><rect codeLine="58" fill="#FEFECE" filter="url(#fa2zyfhzk734t)" height="48" id="Validity" style="stroke:#A80036;stroke-width:1.5;" width="75" x="56.5" y="675"/><ellipse cx="71.5" cy="691" fill="#ADD1B2" rx="11" ry="11" style="stroke:#A80036;stroke-width:1.0;"/><path d="M73.8438,686.6719 C72.9063,686.2344 72.3125,686.0938 71.4375,686.0938 C68.8125,686.0938 66.8125,688.1719 66.8125,690.8906 L66.8125,692.0156 C66.8125,694.5938 68.9219,696.4844 71.8125,696.4844 C73.0313,696.4844 74.1875,696.1875 74.9375,695.6406 C75.5156,695.2344 75.8438,694.7813 75.8438,694.3906 C75.8438,693.9375 75.4531,693.5469 74.9844,693.5469 C74.7656,693.5469 74.5625,693.625 74.375,693.8125 C73.9219,694.2969 73.9219,694.2969 73.7344,694.3906 C73.3125,694.6563 72.625,694.7813 71.8594,694.7813 C69.8125,694.7813 68.5156,693.6875 68.5156,691.9844 L68.5156,690.8906 C68.5156,689.1094 69.7656,687.7969 71.5,687.7969 C72.0781,687.7969 72.6875,687.9531 73.1563,688.2031 C73.6406,688.4844 73.8125,688.7031 73.9063,689.1094 C73.9688,689.5156 74,689.6406 74.1406,689.7656 C74.2813,689.9063 74.5156,690.0156 74.7344,690.0156 C75,690.0156 75.2656,689.875 75.4375,689.6563 C75.5469,689.5 75.5781,689.3125 75.5781,688.8906 L75.5781,687.4688 C75.5781,687.0313 75.5625,686.9063 75.4688,686.75 C75.3125,686.4844 75.0313,686.3438 74.7344,686.3438 C74.4375,686.3438 74.2344,686.4375 74.0156,686.75 L73.8438,686.6719 Z " fill="#000000"/><text fill="#000000" font-family="sans-serif" font-size="12" lengthAdjust="spacing" textLength="43" x="85.5" y="695.1543">Validity</text><line style="stroke:#A80036;stroke-width:1.5;" x1="57.5" x2="130.5" y1="707" y2="707"/><line style="stroke:#A80036;stroke-width:1.5;" x1="57.5" x2="130.5" y1="715" y2="715"/><!--MD5=[4073667e1fcbe36a27d3e4393887242c]
class Signing--><rect codeLine="60" fill="#FEFECE" filter="url(#fa2zyfhzk734t)" height="48" id="Signing" style="stroke:#A80036;stroke-width:1.5;" width="76" x="393" y="675"/><ellipse cx="408" cy="691" fill="#ADD1B2" rx="11" ry="11" style="stroke:#A80036;stroke-width:1.0;"/><path d="M410.3438,686.6719 C409.4063,686.2344 408.8125,686.0938 407.9375,686.0938 C405.3125,686.0938 403.3125,688.1719 403.3125,690.8906 L403.3125,692.0156 C403.3125,694.5938 405.4219,696.4844 408.3125,696.4844 C409.5313,696.4844 410.6875,696.1875 411.4375,695.6406 C412.0156,695.2344 412.3438,694.7813 412.3438,694.3906 C412.3438,693.9375 411.9531,693.5469 411.4844,693.5469 C411.2656,693.5469 411.0625,693.625 410.875,693.8125 C410.4219,694.2969 410.4219,694.2969 410.2344,694.3906 C409.8125,694.6563 409.125,694.7813 408.3594,694.7813 C406.3125,694.7813 405.0156,693.6875 405.0156,691.9844 L405.0156,690.8906 C405.0156,689.1094 406.2656,687.7969 408,687.7969 C408.5781,687.7969 409.1875,687.9531 409.6563,688.2031 C410.1406,688.4844 410.3125,688.7031 410.4063,689.1094 C410.4688,689.5156 410.5,689.6406 410.6406,689.7656 C410.7813,689.9063 411.0156,690.0156 411.2344,690.0156 C411.5,690.0156 411.7656,689.875 411.9375,689.6563 C412.0469,689.5 412.0781,689.3125 412.0781,688.8906 L412.0781,687.4688 C412.0781,687.0313 412.0625,686.9063 411.9688,686.75 C411.8125,686.4844 411.5313,686.3438 411.2344,686.3438 C410.9375,686.3438 410.7344,686.4375 410.5156,686.75 L410.3438,686.6719 Z " fill="#000000"/><text fill="#000000" font-family="sans-serif" font-size="12" lengthAdjust="spacing" textLength="44" x="422" y="695.1543">Signing</text><line style="stroke:#A80036;stroke-width:1.5;" x1="394" x2="468" y1="707" y2="707"/><line style="stroke:#A80036;stroke-width:1.5;" x1="394" x2="468" y1="715" y2="715"/><!--MD5=[d00e8da9d423fec568f4c114e3e81b0a]
class Headers--><rect codeLine="62" fill="#FEFECE" filter="url(#fa2zyfhzk734t)" height="48" id="Headers" style="stroke:#A80036;stroke-width:1.5;" width="84" x="106" y="934"/><ellipse cx="121" cy="950" fill="#ADD1B2" rx="11" ry="11" style="stroke:#A80036;stroke-width:1.0;"/><path d="M123.3438,945.6719 C122.4063,945.2344 121.8125,945.0938 120.9375,945.0938 C118.3125,945.0938 116.3125,947.1719 116.3125,949.8906 L116.3125,951.0156 C116.3125,953.5938 118.4219,955.4844 121.3125,955.4844 C122.5313,955.4844 123.6875,955.1875 124.4375,954.6406 C125.0156,954.2344 125.3438,953.7813 125.3438,953.3906 C125.3438,952.9375 124.9531,952.5469 124.4844,952.5469 C124.2656,952.5469 124.0625,952.625 123.875,952.8125 C123.4219,953.2969 123.4219,953.2969 123.2344,953.3906 C122.8125,953.6563 122.125,953.7813 121.3594,953.7813 C119.3125,953.7813 118.0156,952.6875 118.0156,950.9844 L118.0156,949.8906 C118.0156,948.1094 119.2656,946.7969 121,946.7969 C121.5781,946.7969 122.1875,946.9531 122.6563,947.2031 C123.1406,947.4844 123.3125,947.7031 123.4063,948.1094 C123.4688,948.5156 123.5,948.6406 123.6406,948.7656 C123.7813,948.9063 124.0156,949.0156 124.2344,949.0156 C124.5,949.0156 124.7656,948.875 124.9375,948.6563 C125.0469,948.5 125.0781,948.3125 125.0781,947.8906 L125.0781,946.4688 C125.0781,946.0313 125.0625,945.9063 124.9688,945.75 C124.8125,945.4844 124.5313,945.3438 124.2344,945.3438 C123.9375,945.3438 123.7344,945.4375 123.5156,945.75 L123.3438,945.6719 Z " fill="#000000"/><text fill="#000000" font-family="sans-serif" font-size="12" lengthAdjust="spacing" textLength="52" x="135" y="954.1543">Headers</text><line style="stroke:#A80036;stroke-width:1.5;" x1="107" x2="189" y1="966" y2="966"/><line style="stroke:#A80036;stroke-width:1.5;" x1="107" x2="189" y1="974" y2="974"/><!--MD5=[75b8fd6e84ed28c5c20d8a408136f7be]
class DocumentDecodedBuilder--><rect codeLine="64" fill="#FEFECE" filter="url(#fa2zyfhzk734t)" height="48" id="DocumentDecodedBuilder" style="stroke:#A80036;stroke-width:1.5;" width="191" x="166.5" y="675"/><ellipse cx="181.5" cy="691" fill="#ADD1B2" rx="11" ry="11" style="stroke:#A80036;stroke-width:1.0;"/><path d="M183.8438,686.6719 C182.9063,686.2344 182.3125,686.0938 181.4375,686.0938 C178.8125,686.0938 176.8125,688.1719 176.8125,690.8906 L176.8125,692.0156 C176.8125,694.5938 178.9219,696.4844 181.8125,696.4844 C183.0313,696.4844 184.1875,696.1875 184.9375,695.6406 C185.5156,695.2344 185.8438,694.7813 185.8438,694.3906 C185.8438,693.9375 185.4531,693.5469 184.9844,693.5469 C184.7656,693.5469 184.5625,693.625 184.375,693.8125 C183.9219,694.2969 183.9219,694.2969 183.7344,694.3906 C183.3125,694.6563 182.625,694.7813 181.8594,694.7813 C179.8125,694.7813 178.5156,693.6875 178.5156,691.9844 L178.5156,690.8906 C178.5156,689.1094 179.7656,687.7969 181.5,687.7969 C182.0781,687.7969 182.6875,687.9531 183.1563,688.2031 C183.6406,688.4844 183.8125,688.7031 183.9063,689.1094 C183.9688,689.5156 184,689.6406 184.1406,689.7656 C184.2813,689.9063 184.5156,690.0156 184.7344,690.0156 C185,690.0156 185.2656,689.875 185.4375,689.6563 C185.5469,689.5 185.5781,689.3125 185.5781,688.8906 L185.5781,687.4688 C185.5781,687.0313 185.5625,686.9063 185.4688,686.75 C185.3125,686.4844 185.0313,686.3438 184.7344,686.3438 C184.4375,686.3438 184.2344,686.4375 184.0156,686.75 L183.8438,686.6719 Z " fill="#000000"/><text fill="#000000" font-family="sans-serif" font-size="12" lengthAdjust="spacing" textLength="159" x="195.5" y="695.1543">DocumentDecodedBuilder</text><line style="stroke:#A80036;stroke-width:1.5;" x1="167.5" x2="356.5" y1="707" y2="707"/><line style="stroke:#A80036;stroke-width:1.5;" x1="167.5" x2="356.5" y1="715" y2="715"/><!--MD5=[3411fe949bb3a4a1ee7a25aa2d5a8b06]
class DocumentDecoded--><rect codeLine="66" fill="#FEFECE" filter="url(#fa2zyfhzk734t)" height="48" id="DocumentDecoded" style="stroke:#A80036;stroke-width:1.5;" width="149" x="89.5" y="816.5"/><ellipse cx="104.5" cy="832.5" fill="#ADD1B2" rx="11" ry="11" style="stroke:#A80036;stroke-width:1.0;"/><path d="M106.8438,828.1719 C105.9063,827.7344 105.3125,827.5938 104.4375,827.5938 C101.8125,827.5938 99.8125,829.6719 99.8125,832.3906 L99.8125,833.5156 C99.8125,836.0938 101.9219,837.9844 104.8125,837.9844 C106.0313,837.9844 107.1875,837.6875 107.9375,837.1406 C108.5156,836.7344 108.8438,836.2813 108.8438,835.8906 C108.8438,835.4375 108.4531,835.0469 107.9844,835.0469 C107.7656,835.0469 107.5625,835.125 107.375,835.3125 C106.9219,835.7969 106.9219,835.7969 106.7344,835.8906 C106.3125,836.1563 105.625,836.2813 104.8594,836.2813 C102.8125,836.2813 101.5156,835.1875 101.5156,833.4844 L101.5156,832.3906 C101.5156,830.6094 102.7656,829.2969 104.5,829.2969 C105.0781,829.2969 105.6875,829.4531 106.1563,829.7031 C106.6406,829.9844 106.8125,830.2031 106.9063,830.6094 C106.9688,831.0156 107,831.1406 107.1406,831.2656 C107.2813,831.4063 107.5156,831.5156 107.7344,831.5156 C108,831.5156 108.2656,831.375 108.4375,831.1563 C108.5469,831 108.5781,830.8125 108.5781,830.3906 L108.5781,828.9688 C108.5781,828.5313 108.5625,828.4063 108.4688,828.25 C108.3125,827.9844 108.0313,827.8438 107.7344,827.8438 C107.4375,827.8438 107.2344,827.9375 107.0156,828.25 L106.8438,828.1719 Z " fill="#000000"/><text fill="#000000" font-family="sans-serif" font-size="12" lengthAdjust="spacing" textLength="117" x="118.5" y="836.6543">DocumentDecoded</text><line style="stroke:#A80036;stroke-width:1.5;" x1="90.5" x2="237.5" y1="848.5" y2="848.5"/><line style="stroke:#A80036;stroke-width:1.5;" x1="90.5" x2="237.5" y1="856.5" y2="856.5"/><!--MD5=[18334816dde9281b20ff6b566e5f4a17]
class FieldZoneDecoder--><rect codeLine="68" fill="#FEFECE" filter="url(#fa2zyfhzk734t)" height="48" id="FieldZoneDecoder" style="stroke:#A80036;stroke-width:1.5;" width="146" x="274" y="816.5"/><ellipse cx="289" cy="832.5" fill="#ADD1B2" rx="11" ry="11" style="stroke:#A80036;stroke-width:1.0;"/><path d="M291.3438,828.1719 C290.4063,827.7344 289.8125,827.5938 288.9375,827.5938 C286.3125,827.5938 284.3125,829.6719 284.3125,832.3906 L284.3125,833.5156 C284.3125,836.0938 286.4219,837.9844 289.3125,837.9844 C290.5313,837.9844 291.6875,837.6875 292.4375,837.1406 C293.0156,836.7344 293.3438,836.2813 293.3438,835.8906 C293.3438,835.4375 292.9531,835.0469 292.4844,835.0469 C292.2656,835.0469 292.0625,835.125 291.875,835.3125 C291.4219,835.7969 291.4219,835.7969 291.2344,835.8906 C290.8125,836.1563 290.125,836.2813 289.3594,836.2813 C287.3125,836.2813 286.0156,835.1875 286.0156,833.4844 L286.0156,832.3906 C286.0156,830.6094 287.2656,829.2969 289,829.2969 C289.5781,829.2969 290.1875,829.4531 290.6563,829.7031 C291.1406,829.9844 291.3125,830.2031 291.4063,830.6094 C291.4688,831.0156 291.5,831.1406 291.6406,831.2656 C291.7813,831.4063 292.0156,831.5156 292.2344,831.5156 C292.5,831.5156 292.7656,831.375 292.9375,831.1563 C293.0469,831 293.0781,830.8125 293.0781,830.3906 L293.0781,828.9688 C293.0781,828.5313 293.0625,828.4063 292.9688,828.25 C292.8125,827.9844 292.5313,827.8438 292.2344,827.8438 C291.9375,827.8438 291.7344,827.9375 291.5156,828.25 L291.3438,828.1719 Z " fill="#000000"/><text fill="#000000" font-family="sans-serif" font-size="12" lengthAdjust="spacing" textLength="114" x="303" y="836.6543">FieldZoneDecoder</text><line style="stroke:#A80036;stroke-width:1.5;" x1="275" x2="419" y1="848.5" y2="848.5"/><line style="stroke:#A80036;stroke-width:1.5;" x1="275" x2="419" y1="856.5" y2="856.5"/><!--MD5=[0e15573b0cd65ebabdc8e2e1c5388a78]
class FieldZone--><rect codeLine="70" fill="#FEFECE" filter="url(#fa2zyfhzk734t)" height="48" id="FieldZone" style="stroke:#A80036;stroke-width:1.5;" width="93" x="225.5" y="934"/><ellipse cx="240.5" cy="950" fill="#ADD1B2" rx="11" ry="11" style="stroke:#A80036;stroke-width:1.0;"/><path d="M242.8438,945.6719 C241.9063,945.2344 241.3125,945.0938 240.4375,945.0938 C237.8125,945.0938 235.8125,947.1719 235.8125,949.8906 L235.8125,951.0156 C235.8125,953.5938 237.9219,955.4844 240.8125,955.4844 C242.0313,955.4844 243.1875,955.1875 243.9375,954.6406 C244.5156,954.2344 244.8438,953.7813 244.8438,953.3906 C244.8438,952.9375 244.4531,952.5469 243.9844,952.5469 C243.7656,952.5469 243.5625,952.625 243.375,952.8125 C242.9219,953.2969 242.9219,953.2969 242.7344,953.3906 C242.3125,953.6563 241.625,953.7813 240.8594,953.7813 C238.8125,953.7813 237.5156,952.6875 237.5156,950.9844 L237.5156,949.8906 C237.5156,948.1094 238.7656,946.7969 240.5,946.7969 C241.0781,946.7969 241.6875,946.9531 242.1563,947.2031 C242.6406,947.4844 242.8125,947.7031 242.9063,948.1094 C242.9688,948.5156 243,948.6406 243.1406,948.7656 C243.2813,948.9063 243.5156,949.0156 243.7344,949.0156 C244,949.0156 244.2656,948.875 244.4375,948.6563 C244.5469,948.5 244.5781,948.3125 244.5781,947.8906 L244.5781,946.4688 C244.5781,946.0313 244.5625,945.9063 244.4688,945.75 C244.3125,945.4844 244.0313,945.3438 243.7344,945.3438 C243.4375,945.3438 243.2344,945.4375 243.0156,945.75 L242.8438,945.6719 Z " fill="#000000"/><text fill="#000000" font-family="sans-serif" font-size="12" lengthAdjust="spacing" textLength="61" x="254.5" y="954.1543">FieldZone</text><line style="stroke:#A80036;stroke-width:1.5;" x1="226.5" x2="317.5" y1="966" y2="966"/><line style="stroke:#A80036;stroke-width:1.5;" x1="226.5" x2="317.5" y1="974" y2="974"/><!--MD5=[d9427b671d7d049aff2d6f2fe36a13b3]
class Field--><rect codeLine="72" fill="#FEFECE" filter="url(#fa2zyfhzk734t)" height="48" id="Field" style="stroke:#A80036;stroke-width:1.5;" width="61" x="303.5" y="1043"/><ellipse cx="318.5" cy="1059" fill="#ADD1B2" rx="11" ry="11" style="stroke:#A80036;stroke-width:1.0;"/><path d="M320.8438,1054.6719 C319.9063,1054.2344 319.3125,1054.0938 318.4375,1054.0938 C315.8125,1054.0938 313.8125,1056.1719 313.8125,1058.8906 L313.8125,1060.0156 C313.8125,1062.5938 315.9219,1064.4844 318.8125,1064.4844 C320.0313,1064.4844 321.1875,1064.1875 321.9375,1063.6406 C322.5156,1063.2344 322.8438,1062.7813 322.8438,1062.3906 C322.8438,1061.9375 322.4531,1061.5469 321.9844,1061.5469 C321.7656,1061.5469 321.5625,1061.625 321.375,1061.8125 C320.9219,1062.2969 320.9219,1062.2969 320.7344,1062.3906 C320.3125,1062.6563 319.625,1062.7813 318.8594,1062.7813 C316.8125,1062.7813 315.5156,1061.6875 315.5156,1059.9844 L315.5156,1058.8906 C315.5156,1057.1094 316.7656,1055.7969 318.5,1055.7969 C319.0781,1055.7969 319.6875,1055.9531 320.1563,1056.2031 C320.6406,1056.4844 320.8125,1056.7031 320.9063,1057.1094 C320.9688,1057.5156 321,1057.6406 321.1406,1057.7656 C321.2813,1057.9063 321.5156,1058.0156 321.7344,1058.0156 C322,1058.0156 322.2656,1057.875 322.4375,1057.6563 C322.5469,1057.5 322.5781,1057.3125 322.5781,1056.8906 L322.5781,1055.4688 C322.5781,1055.0313 322.5625,1054.9063 322.4688,1054.75 C322.3125,1054.4844 322.0313,1054.3438 321.7344,1054.3438 C321.4375,1054.3438 321.2344,1054.4375 321.0156,1054.75 L320.8438,1054.6719 Z " fill="#000000"/><text fill="#000000" font-family="sans-serif" font-size="12" lengthAdjust="spacing" textLength="29" x="332.5" y="1063.1543">Field</text><line style="stroke:#A80036;stroke-width:1.5;" x1="304.5" x2="363.5" y1="1075" y2="1075"/><line style="stroke:#A80036;stroke-width:1.5;" x1="304.5" x2="363.5" y1="1083" y2="1083"/><!--MD5=[7c8b7c795e68e97fa099bf919a0a8903]
class DocumentRaw--><rect codeLine="74" fill="#FEFECE" filter="url(#fa2zyfhzk734t)" height="48" id="DocumentRaw" style="stroke:#A80036;stroke-width:1.5;" width="117" x="235.5" y="415"/><ellipse cx="250.5" cy="431" fill="#ADD1B2" rx="11" ry="11" style="stroke:#A80036;stroke-width:1.0;"/><path d="M252.8438,426.6719 C251.9063,426.2344 251.3125,426.0938 250.4375,426.0938 C247.8125,426.0938 245.8125,428.1719 245.8125,430.8906 L245.8125,432.0156 C245.8125,434.5938 247.9219,436.4844 250.8125,436.4844 C252.0313,436.4844 253.1875,436.1875 253.9375,435.6406 C254.5156,435.2344 254.8438,434.7813 254.8438,434.3906 C254.8438,433.9375 254.4531,433.5469 253.9844,433.5469 C253.7656,433.5469 253.5625,433.625 253.375,433.8125 C252.9219,434.2969 252.9219,434.2969 252.7344,434.3906 C252.3125,434.6563 251.625,434.7813 250.8594,434.7813 C248.8125,434.7813 247.5156,433.6875 247.5156,431.9844 L247.5156,430.8906 C247.5156,429.1094 248.7656,427.7969 250.5,427.7969 C251.0781,427.7969 251.6875,427.9531 252.1563,428.2031 C252.6406,428.4844 252.8125,428.7031 252.9063,429.1094 C252.9688,429.5156 253,429.6406 253.1406,429.7656 C253.2813,429.9063 253.5156,430.0156 253.7344,430.0156 C254,430.0156 254.2656,429.875 254.4375,429.6563 C254.5469,429.5 254.5781,429.3125 254.5781,428.8906 L254.5781,427.4688 C254.5781,427.0313 254.5625,426.9063 254.4688,426.75 C254.3125,426.4844 254.0313,426.3438 253.7344,426.3438 C253.4375,426.3438 253.2344,426.4375 253.0156,426.75 L252.8438,426.6719 Z " fill="#000000"/><text fill="#000000" font-family="sans-serif" font-size="12" lengthAdjust="spacing" textLength="85" x="264.5" y="435.1543">DocumentRaw</text><line style="stroke:#A80036;stroke-width:1.5;" x1="236.5" x2="351.5" y1="447" y2="447"/><line style="stroke:#A80036;stroke-width:1.5;" x1="236.5" x2="351.5" y1="455" y2="455"/><!--MD5=[c40368751ea5476301fbcdc8cb25eba8]
class Security--><rect codeLine="80" fill="#FEFECE" filter="url(#fa2zyfhzk734t)" height="60.8047" id="Security" style="stroke:#A80036;stroke-width:1.5;" width="100" x="525" y="810"/><ellipse cx="548.55" cy="826" fill="#ADD1B2" rx="11" ry="11" style="stroke:#A80036;stroke-width:1.0;"/><path d="M550.8938,821.6719 C549.9563,821.2344 549.3625,821.0938 548.4875,821.0938 C545.8625,821.0938 543.8625,823.1719 543.8625,825.8906 L543.8625,827.0156 C543.8625,829.5938 545.9719,831.4844 548.8625,831.4844 C550.0813,831.4844 551.2375,831.1875 551.9875,830.6406 C552.5656,830.2344 552.8938,829.7813 552.8938,829.3906 C552.8938,828.9375 552.5031,828.5469 552.0344,828.5469 C551.8156,828.5469 551.6125,828.625 551.425,828.8125 C550.9719,829.2969 550.9719,829.2969 550.7844,829.3906 C550.3625,829.6563 549.675,829.7813 548.9094,829.7813 C546.8625,829.7813 545.5656,828.6875 545.5656,826.9844 L545.5656,825.8906 C545.5656,824.1094 546.8156,822.7969 548.55,822.7969 C549.1281,822.7969 549.7375,822.9531 550.2063,823.2031 C550.6906,823.4844 550.8625,823.7031 550.9563,824.1094 C551.0188,824.5156 551.05,824.6406 551.1906,824.7656 C551.3313,824.9063 551.5656,825.0156 551.7844,825.0156 C552.05,825.0156 552.3156,824.875 552.4875,824.6563 C552.5969,824.5 552.6281,824.3125 552.6281,823.8906 L552.6281,822.4688 C552.6281,822.0313 552.6125,821.9063 552.5188,821.75 C552.3625,821.4844 552.0813,821.3438 551.7844,821.3438 C551.4875,821.3438 551.2844,821.4375 551.0656,821.75 L550.8938,821.6719 Z " fill="#000000"/><text fill="#000000" font-family="sans-serif" font-size="12" lengthAdjust="spacing" textLength="49" x="564.45" y="830.1543">Security</text><line style="stroke:#A80036;stroke-width:1.5;" x1="526" x2="624" y1="842" y2="842"/><text fill="#000000" font-family="sans-serif" font-size="11" lengthAdjust="spacing" textLength="88" x="531" y="856.2104">checkSignature</text><line style="stroke:#A80036;stroke-width:1.5;" x1="526" x2="624" y1="862.8047" y2="862.8047"/><!--MD5=[68ea6aadf39693d04cd93a7e5f83bb9d]
link SerializeJSON to Serialize--><path codeLine="39" d="M580.516,161.332 C578.789,188.492 575.901,233.924 573.758,267.622 " fill="none" id="SerializeJSON-to-Serialize" style="stroke:#A80036;stroke-width:1.0;"/><polygon fill="none" points="580.733,268.247,572.478,287.762,566.761,267.359,580.733,268.247" style="stroke:#A80036;stroke-width:1.0;"/><!--MD5=[5eddee497e9500eb2c5148b6f5722fdf]
reverse link Builder to Loader--><path codeLine="86" d="M1520,341.396 C1520,363.629 1520,394.159 1520,414.906 " fill="none" id="Builder-backto-Loader" style="stroke:#A80036;stroke-width:1.0;stroke-dasharray:7.0,7.0;"/><polygon fill="#A80036" points="1520,336.219,1516,345.219,1520,341.219,1524,345.219,1520,336.219" style="stroke:#A80036;stroke-width:1.0;"/><!--MD5=[8849be3bc4f68b7a335c9bc721d27391]
reverse link specifications to build--><path d="M1400.0643,162.9136 C1400.1414,163.1518 1400.2189,163.3912 1400.2968,163.6319 C1400.6085,164.5948 1400.9269,165.5781 1401.2514,166.5806 C1406.4441,182.6205 1413.2281,203.5771 1420.0113,224.5314 C1426.7944,245.4857 1433.5766,266.4377 1438.7655,282.4685 C1439.0898,283.4704 1439.4079,284.4531 1439.7193,285.4154 C1439.7972,285.6559 1439.8747,285.8952 1439.9517,286.1332 " fill="none" id="specifications-backto-build" style="stroke:#A80036;stroke-width:1.0;stroke-dasharray:7.0,7.0;"/><polygon fill="#A80036" points="1400.0643,162.9136,1399.0307,172.7081,1401.6043,167.6705,1406.6418,170.2441,1400.0643,162.9136" style="stroke:#A80036;stroke-width:1.0;"/><text fill="#000000" font-family="sans-serif" font-size="13" lengthAdjust="spacing" textLength="180" x="1420" y="217.0669">«Generate when compiling»</text><!--MD5=[b1cb5a14cce5509356c971badb543f22]
reverse link SpecifcationStore to DocumentSpecificationStore--><path codeLine="88" d="M1221.2,185.832 C1175.42,219.109 1116.41,262 1080.71,287.954 " fill="none" id="SpecifcationStore-backto-DocumentSpecificationStore" style="stroke:#A80036;stroke-width:1.0;"/><polygon fill="none" points="1217.1,180.153,1237.4,174.056,1225.34,191.478,1217.1,180.153" style="stroke:#A80036;stroke-width:1.0;"/><!--MD5=[9cafde054fa77a7172581c9d4dd90b59]
reverse link SpecifcationStore to FieldSpecificationStore--><path codeLine="89" d="M1281.78,194.484 C1278.85,226.171 1275.35,263.993 1273.15,287.759 " fill="none" id="SpecifcationStore-backto-FieldSpecificationStore" style="stroke:#A80036;stroke-width:1.0;"/><polygon fill="none" points="1274.83,193.537,1283.65,174.266,1288.77,194.826,1274.83,193.537" style="stroke:#A80036;stroke-width:1.0;"/><!--MD5=[032e2e3c1c3bb68a8087c9cf8b4cab8b]
link Decoder to Validity--><path codeLine="91" d="M252.073,611.06 C218.091,629.75 170.415,655.972 136.326,674.721 " fill="none" id="Decoder-to-Validity" style="stroke:#A80036;stroke-width:1.0;stroke-dasharray:7.0,7.0;"/><polygon fill="#A80036" points="131.819,677.2,141.6325,676.3659,136.1997,674.7896,137.7759,669.3568,131.819,677.2" style="stroke:#A80036;stroke-width:1.0;"/><!--MD5=[abc44a71d64a7ae5896be0494b3e5158]
link DocumentDecodedBuilder to DocumentDecoded--><path codeLine="92" d="M245.817,723.036 C228.652,747.469 201.544,786.057 183.283,812.051 " fill="none" id="DocumentDecodedBuilder-to-DocumentDecoded" style="stroke:#A80036;stroke-width:1.0;stroke-dasharray:7.0,7.0;"/><polygon fill="#A80036" points="180.207,816.43,188.6536,811.365,183.0812,812.3387,182.1075,806.7663,180.207,816.43" style="stroke:#A80036;stroke-width:1.0;"/><!--MD5=[ae829301ca5ed5217d75d6f929ee8b8e]
link Decoder to DocumentDecodedBuilder--><path codeLine="93" d="M287.292,611.06 C282.3,628.22 275.461,651.729 270.153,669.974 " fill="none" id="Decoder-to-DocumentDecodedBuilder" style="stroke:#A80036;stroke-width:1.0;stroke-dasharray:7.0,7.0;"/><polygon fill="#A80036" points="268.699,674.971,275.0549,667.4475,270.0964,670.1702,267.3736,665.2117,268.699,674.971" style="stroke:#A80036;stroke-width:1.0;"/><!--MD5=[f81c707ab93b348cdc0f48805e5e290b]
link DocumentDecoded to Headers--><path codeLine="95" d="M160.801,864.596 C158.566,880.727 155.538,902.583 152.989,920.989 " fill="none" id="DocumentDecoded-to-Headers" style="stroke:#A80036;stroke-width:1.0;"/><polygon fill="#A80036" points="151.194,933.944,155.9797,928.5498,152.841,922.0576,148.0554,927.4518,151.194,933.944" style="stroke:#A80036;stroke-width:1.0;"/><!--MD5=[ffd97225052ea2125d496cadf6d7d646]
link Decoder to Signing--><path codeLine="96" d="M322.72,611.06 C344.823,628.807 375.382,653.344 398.402,671.826 " fill="none" id="Decoder-to-Signing" style="stroke:#A80036;stroke-width:1.0;stroke-dasharray:7.0,7.0;"/><polygon fill="#A80036" points="402.318,674.971,397.8042,666.2174,398.4191,671.8407,392.7958,672.4556,402.318,674.971" style="stroke:#A80036;stroke-width:1.0;"/><!--MD5=[e031acf79fa872fae301512d24fcebb4]
reverse link DocumentRaw to Decoder--><path codeLine="97" d="M294,468.461 C294,496.054 294,537.389 294,562.974 " fill="none" id="DocumentRaw-backto-Decoder" style="stroke:#A80036;stroke-width:1.0;stroke-dasharray:7.0,7.0;"/><polygon fill="#A80036" points="294,463.134,290,472.134,294,468.134,298,472.134,294,463.134" style="stroke:#A80036;stroke-width:1.0;"/><!--MD5=[d91b32f55dfb4c3a6085ef7eb3bee78a]
link DocumentDecodedBuilder to FieldZoneDecoder--><path codeLine="99" d="M276.036,723.036 C290.924,747.469 314.436,786.057 330.275,812.051 " fill="none" id="DocumentDecodedBuilder-to-FieldZoneDecoder" style="stroke:#A80036;stroke-width:1.0;stroke-dasharray:7.0,7.0;"/><polygon fill="#A80036" points="332.943,816.43,331.6764,806.6629,330.3416,812.16,324.8445,810.8252,332.943,816.43" style="stroke:#A80036;stroke-width:1.0;"/><!--MD5=[be656fc2f8ab3c6bb55ed76e89c55e02]
link FieldZoneDecoder to FieldZone--><path codeLine="100" d="M332.003,864.596 C319.842,883.324 302.67,909.768 289.811,929.571 " fill="none" id="FieldZoneDecoder-to-FieldZone" style="stroke:#A80036;stroke-width:1.0;stroke-dasharray:7.0,7.0;"/><polygon fill="#A80036" points="286.971,933.944,295.2266,928.5732,289.6935,929.7502,288.5165,924.2172,286.971,933.944" style="stroke:#A80036;stroke-width:1.0;"/><!--MD5=[c6f84ccc41295f3cdcc6f3152f30b842]
link FieldZoneDecoder to Field--><path codeLine="102" d="M345.658,864.68 C343.258,906.127 338.239,992.79 335.64,1037.684 " fill="none" id="FieldZoneDecoder-to-Field" style="stroke:#A80036;stroke-width:1.0;stroke-dasharray:7.0,7.0;"/><polygon fill="#A80036" points="335.335,1042.946,339.8503,1034.1932,335.625,1037.9544,331.8638,1033.7291,335.335,1042.946" style="stroke:#A80036;stroke-width:1.0;"/><!--MD5=[b138adb73408651b2e6a1c5a701103ad]
link FieldZone to Field--><path codeLine="104" d="M285.453,982.217 C293.74,996.519 304.522,1015.126 313.819,1031.171 " fill="none" id="FieldZone-to-Field" style="stroke:#A80036;stroke-width:1.0;"/><polygon fill="#A80036" points="320.573,1042.828,321.0258,1035.6311,314.5567,1032.4451,314.1039,1039.642,320.573,1042.828" style="stroke:#A80036;stroke-width:1.0;"/><!--MD5=[009bfece66ffe574799c986a420cab85]
link DocumentDecoded to FieldZone--><path codeLine="105" d="M185.596,864.596 C201.636,881.75 223.73,905.378 241.561,924.447 " fill="none" id="DocumentDecoded-to-FieldZone" style="stroke:#A80036;stroke-width:1.0;"/><polygon fill="#A80036" points="250.442,933.944,249.2654,926.8295,242.2456,925.1793,243.4223,932.2938,250.442,933.944" style="stroke:#A80036;stroke-width:1.0;"/><!--MD5=[8e864b967b41e70eacc955ab45e5973b]
link Signing to Security--><path codeLine="107" d="M454.779,723.036 C478.153,745.68 514.077,780.48 540.571,806.147 " fill="none" id="Signing-to-Security" style="stroke:#A80036;stroke-width:1.0;stroke-dasharray:7.0,7.0;"/><polygon fill="#A80036" points="544.409,809.865,540.7272,800.7302,540.8175,806.3863,535.1614,806.4766,544.409,809.865" style="stroke:#A80036;stroke-width:1.0;"/><!--MD5=[645a5dbea5ed2c3f032f45b0c52eb592]
link lib_c.rs to lib.rs--><path codeLine="109" d="M432.743,336.219 C433.408,357.004 434.385,387.538 435.096,409.737 " fill="none" id="lib_c.rs-to-lib.rs" style="stroke:#A80036;stroke-width:1.0;stroke-dasharray:7.0,7.0;"/><polygon fill="#A80036" points="435.261,414.906,438.9709,405.7826,435.101,409.9086,430.975,406.0386,435.261,414.906" style="stroke:#A80036;stroke-width:1.0;"/><!--MD5=[271f938336f25fa05ca6cec249c82922]
link lib.rs to Decoder--><path codeLine="111" d="M413.5,463.134 C388.053,489.298 346.685,531.831 319.91,559.36 " fill="none" id="lib.rs-to-Decoder" style="stroke:#A80036;stroke-width:1.0;stroke-dasharray:7.0,7.0;"/><polygon fill="#A80036" points="316.395,562.974,325.5372,559.3107,319.8809,559.3895,319.802,553.7332,316.395,562.974" style="stroke:#A80036;stroke-width:1.0;"/><!--MD5=[030a2bb4a1db419772e1cc284bec1a7a]
reverse link Serialize to lib.rs--><path codeLine="113" d="M542.138,339.724 C517.997,362.077 483.915,393.634 460.942,414.906 " fill="none" id="Serialize-backto-lib.rs" style="stroke:#A80036;stroke-width:1.0;stroke-dasharray:7.0,7.0;"/><polygon fill="#A80036" points="545.924,336.219,536.6027,339.3991,542.2554,339.6162,542.0382,345.2689,545.924,336.219" style="stroke:#A80036;stroke-width:1.0;"/><!--MD5=[316392ecffcd500819901ed8193c6862]
link lib.rs to DmtxRead--><path codeLine="115" d="M457.55,463.134 C481.822,489.191 521.218,531.484 546.87,559.022 " fill="none" id="lib.rs-to-DmtxRead" style="stroke:#A80036;stroke-width:1.0;stroke-dasharray:7.0,7.0;"/><polygon fill="#A80036" points="550.551,562.974,547.3446,553.6617,547.1434,559.315,541.4902,559.1138,550.551,562.974" style="stroke:#A80036;stroke-width:1.0;"/><!--MD5=[fa76c3196b41d580b659c0de9ef8a3b6]
link DmtxRead to libdmtx--><path codeLine="117" d="M572,611.06 C572,627.16 572,648.848 572,666.535 " fill="none" id="DmtxRead-to-libdmtx" style="stroke:#A80036;stroke-width:1.0;stroke-dasharray:7.0,7.0;"/><polygon fill="#A80036" points="572,671.885,576,662.885,572,666.885,568,662.885,572,671.885" style="stroke:#A80036;stroke-width:1.0;"/><!--MD5=[78462a5ca61faec69a6842da0becc939]
@startuml
skinparam genericDisplay old
set namespaceSeparator none


package lib2D-Doc{

    package build{
        class Loader{
        }
        class Builder{
           
        }
    }

    package specifications{
        class SpecifcationStore{
            fill (Hashmap)
            get(id)
        }
        class ErrorSpecifiactions{
        }
        class DocumentSpecificationStore{
        }
        class FieldSpecificationStore{
        }
note as N1
  DocumentSpecificationStore
  FieldSpecificationStore 
  are available in every package (Singleton)
end note
    }


    package serialize{
        class Serialize{
        }
        class SerializeJSON{
        }
SerializeJSON - -|> Serialize
       }

        package libDmtx{
        class DmtxRead  {
        }
        class libdmtx << (L,#FF7700) extern  >>{
        }

       
    }

    package document{
        interface lib_c.rs{
        }
        interface lib.rs{
        }
        class  Decoder{
        }
        class  Validity{
        }
        class  Signing{
        }
        class  Headers{
        }
        class  DocumentDecodedBuilder {
        }
        class  DocumentDecoded{
        }
        class  FieldZoneDecoder{
        }
        class  FieldZone{
        }
        class  Field{
        }
        class  DocumentRaw{
        }
       

   }
    package security{
        class  Security{
          checkSignature
        }

    }
 
Builder<.. Loader
specifications <.. build  : <<Generate when compiling>>
SpecifcationStore<|- - DocumentSpecificationStore
SpecifcationStore<|- - FieldSpecificationStore

Decoder ..> Validity
DocumentDecodedBuilder ..> DocumentDecoded
Decoder ..> DocumentDecodedBuilder

DocumentDecoded - -* Headers
Decoder ..> Signing
DocumentRaw <.. Decoder

DocumentDecodedBuilder ..> FieldZoneDecoder 
FieldZoneDecoder ..> FieldZone

FieldZoneDecoder ..> Field

FieldZone - -* Field
DocumentDecoded - -* FieldZone

Signing ..> Security

lib_c.rs ..> lib.rs

lib.rs ..> Decoder 

Serialize <.. lib.rs

lib.rs ..> DmtxRead 

DmtxRead ..> libdmtx


}
@enduml

PlantUML version 1.2022.1beta3(Unknown compile time)
(GPL source distribution)
Java Runtime: Java(TM) SE Runtime Environment
JVM: Java HotSpot(TM) 64-Bit Server VM
Default Encoding: UTF-8
Language: en
Country: US
--></g></svg>